<svg width="400" height="400" viewBox="0 0 400 400" fill="none" xmlns="http://www.w3.org/2000/svg">
<g clip-path="url(#clip0_65_843)">
<path d="M200 400C292.552 400 367.58 324.972 367.58 232.42C367.58 139.868 292.552 64.84 200 64.84C107.448 64.84 32.42 139.868 32.42 232.42C32.42 324.972 107.448 400 200 400Z" fill="url(#paint0_radial_65_843)"/>
<path d="M320.34 127.98C309.63 118.98 302.34 110.75 289.51 105.05C288.03 107.85 282.65 115.43 280.94 118.18C280.35 119.13 278.95 119.17 278.36 118.19C273.8 110.56 258.64 99.32 253.87 83.93C251.74 77.07 242.32 90.86 234.51 88.25C228.07 86.11 221.42 82.83 215.17 78.9C210.12 80.72 205.01 82.07 199.72 82.39C178.31 81.24 159.68 63.25 137.11 65.14C110.81 67.36 92.96 85.22 83.8 109.25C83.8 109.25 63.3 166.71 97.89 217.14C97.89 217.14 86.52 328.82 132.74 361.7C132.74 361.7 151.99 370.35 153.99 347.85C153.99 347.85 147.78 258.24 193.88 255.06C196.17 254.9 198.47 254.94 200.77 254.95C201.45 254.95 202.13 254.96 202.81 254.96C204.05 254.95 205.29 254.94 206.53 255.03C252.65 257.95 246.95 347.59 246.95 347.59C249.08 370.08 268.28 361.32 268.28 361.32C314.32 328.17 302.31 216.56 302.31 216.56C324.26 184.18 323.64 149.09 320.34 127.98Z" fill="#EDE5D9"/>
<path d="M136.4 88.0501C139.2 86.5201 142.1 85.2101 145.06 84.1301C150.36 82.2001 187.38 76.0301 189.06 80.8901C188.99 80.7001 188.9 80.5001 188.84 80.3001C171.92 75.3201 156.08 63.4501 137.55 64.9601C111.24 67.1101 93.35 84.9101 84.11 108.92C84.11 108.92 63.44 166.33 97.89 216.85C97.89 216.85 86.2 328.49 132.33 361.51C132.33 361.51 151.56 370.22 153.62 347.72C153.62 347.72 149.71 288.9 172.75 264.94C171.91 265.35 171.07 265.77 170.27 266.25C157.07 274.05 155.27 287.74 151.88 301.42C149.96 309.14 143.34 336.71 130.55 324.18C123.08 316.86 121.12 304.87 119.62 294.98C117.99 284.17 116.63 273.19 116.19 262.27C115.27 239.6 118.75 215.72 136.29 199.84C132.08 196.95 127.21 195.06 123.25 191.85C118.81 188.24 115.79 183.49 113.66 178.21C100.83 146.32 103.36 106.13 136.4 88.0501Z" fill="#E2D6C5"/>
<path d="M320.86 168.78C320.31 170.1 319.71 171.41 319.02 172.69C313.81 182.36 305.94 189.95 296.7 195.77C290.19 199.89 283.34 203.36 276.44 206.76C274.85 207.54 273.26 208.31 271.69 209.09C270.15 209.86 271.73 210.39 272.82 212.03C274.9 215.15 276.86 218.36 278.42 221.77C284.38 234.78 286.59 248.86 287.29 263.07C288.04 278.26 289.35 294.33 286.28 309.33C284.83 316.44 282.61 323.23 279.32 329.7C277.35 333.57 274.98 338.14 271.14 340.5C267.94 342.47 263.01 343.87 259.78 341.04C256.42 338.1 256.15 333.69 255.61 329.52C254.35 319.74 252.49 309.79 250.26 300.18C248.05 290.66 245.18 280.19 238.59 272.66C235.34 268.94 231.59 266.45 227.49 264.95C250.49 288.93 246.58 347.7 246.58 347.7C248.65 370.2 267.87 361.49 267.87 361.49C314.01 328.48 302.31 216.83 302.31 216.83C313.23 200.84 318.6 184.13 320.86 168.78Z" fill="#E2D6C5"/>
<path d="M259.89 367.21C257.16 367.21 254.18 366.68 251.41 365.07C246.28 362.09 243.29 356.37 242.53 348.09C242.51 347.88 242.51 347.66 242.52 347.45C242.58 346.59 247.69 261.84 206.14 259.09C205.04 259.01 203.92 259.01 202.74 259.02C202.73 259.02 202.72 259.02 202.7 259.02C201.96 259.02 201.28 259.01 200.6 259.01L199.62 259C197.67 258.99 195.83 258.97 194.01 259.09C152.47 261.84 157.58 346.6 157.64 347.45C157.65 347.66 157.65 347.88 157.63 348.09C156.87 356.37 153.89 362.09 148.76 365.07C140.79 369.71 131.04 365.39 130.63 365.21C130.39 365.1 130.16 364.97 129.94 364.81C84.83 332.52 92.39 231.94 93.68 217.91C59.62 166.59 79.4 109.96 80.26 107.55C91.02 79.5701 111.23 63.04 137.18 60.93C150.51 59.85 162.24 65.02 173.59 70.03C182.62 74.01 191.15 77.7701 200.07 78.33C204.35 78.06 208.83 77.04 214.16 75.13C215.33 74.71 216.64 74.85 217.69 75.52C223.88 79.42 230.25 82.5301 236.13 84.51C239.09 85.51 241.12 84.66 244.74 82.93C247.33 81.7 250.27 80.3 253.92 80.04C260.58 79.55 261.41 86.1401 261.82 89.3001C262.08 91.35 262.36 93.46 263.21 95.07C263.99 95.34 265.28 95.7201 266.21 95.9801C270.17 97.1201 272.35 97.7401 273.54 99.6201C275.42 102.6 277.16 106.73 278.77 110.75C279.11 111.6 279.44 112.44 279.76 113.26C280.04 113.97 280.32 114.69 280.6 115.39C281.42 113.65 282.3 111.72 283.06 110.07C284.39 107.15 285.54 104.63 286.21 103.39C287.22 101.51 289.5 100.73 291.45 101.6C301.85 106.26 308.84 112.51 316.24 119.13C318.45 121.11 320.73 123.15 323.18 125.22C323.93 125.85 324.42 126.74 324.57 127.7C328.15 151.12 327.87 185.65 306.46 217.9C307.75 231.93 315.31 332.51 270.2 364.8C269.98 364.95 269.75 365.09 269.51 365.2C269.27 365.33 265.02 367.21 259.89 367.21ZM134.32 357.95C136.34 358.75 141.33 360.03 144.72 358.04C147.38 356.47 149 352.98 149.54 347.65C149.36 344.63 148.32 323.55 152.41 301.78C158.38 269.94 172.59 252.38 193.5 251C195.61 250.86 197.69 250.88 199.7 250.89L200.68 250.9C201.37 250.91 202.03 250.91 202.7 250.91C204.01 250.9 205.34 250.9 206.73 251C227.6 252.38 241.81 269.94 247.78 301.78C251.86 323.56 250.82 344.64 250.65 347.65C251.19 352.98 252.81 356.48 255.47 358.04C258.86 360.03 263.83 358.76 265.87 357.95C309.13 326.35 298.39 218.36 298.28 217.27C298.18 216.32 298.42 215.36 298.96 214.56C319.24 184.81 319.97 152.65 316.8 130.41C314.71 128.62 312.76 126.87 310.86 125.17C304.61 119.58 299.1 114.64 291.72 110.73C291.33 111.57 290.91 112.5 290.48 113.44C288.08 118.69 286.3 122.54 285.23 124.25C284.19 125.9 282.43 126.88 280.48 126.88C280.46 126.88 280.44 126.88 280.42 126.88C278.47 126.86 276.72 125.85 275.72 124.18C274.71 122.49 273.63 119.73 272.25 116.23C271.93 115.42 271.61 114.59 271.27 113.75C270.02 110.63 268.59 107.18 267.2 104.75C266.37 104.45 264.95 104.04 264.01 103.77C260.29 102.7 258.25 102.12 257.06 100.44C254.69 97.1101 254.18 93.19 253.81 90.32C253.73 89.67 253.62 88.87 253.51 88.25C251.77 88.57 250.12 89.36 248.27 90.24C244.5 92.04 239.8 94.27 233.59 92.18C227.64 90.18 221.28 87.16 215.07 83.4C209.68 85.2 204.95 86.17 200.33 86.43C200.18 86.44 200.02 86.44 199.87 86.43C189.39 85.84 179.7 81.57 170.34 77.43C159.44 72.62 149.14 68.08 137.86 68.99C115.18 70.84 97.43 85.5301 87.88 110.36C87.71 110.83 68.4 166.4 101.22 214.55C101.76 215.34 102 216.3 101.9 217.26C101.8 218.36 91.06 326.36 134.32 357.95Z" fill="#1A3D69"/>
<path d="M288.56 60.24C287.73 60.24 286.89 59.98 286.17 59.46C284.36 58.14 283.97 55.6 285.29 53.79C288.86 48.91 295.09 38.5 300.57 29.32C304.57 22.63 308.35 16.3 310.76 12.69C312 10.83 314.52 10.32 316.39 11.57C318.25 12.81 318.76 15.33 317.52 17.2C315.22 20.65 311.49 26.89 307.54 33.49C301.69 43.28 295.64 53.4 291.84 58.59C291.05 59.66 289.81 60.24 288.56 60.24Z" fill="#1A3D69"/>
<path d="M270.06 59.09C267.82 59.09 266 57.27 266 55.03C266 45.95 265.65 28.84 264.96 4.17002C264.9 1.93002 266.66 0.0600247 268.9 2.47294e-05C271.14 -0.0599753 273.01 1.70002 273.07 3.94002C273.76 28.68 274.11 45.87 274.11 55.03C274.12 57.27 272.3 59.09 270.06 59.09Z" fill="#1A3D69"/>
<path d="M252.54 63.9001C251.11 63.9001 249.73 63.1501 248.99 61.8101C243.85 52.5601 240.14 46.17 236.86 40.53C231.59 31.48 227.79 24.9401 221.93 13.0601C220.94 11.0501 221.76 8.62005 223.77 7.63005C225.78 6.64005 228.21 7.46005 229.2 9.47005C234.94 21.1001 238.69 27.5401 243.87 36.4501C247.17 42.1201 250.9 48.54 256.08 57.87C257.17 59.83 256.46 62.3 254.5 63.39C253.89 63.74 253.21 63.9001 252.54 63.9001Z" fill="#1A3D69"/>
<path d="M142.28 206.11H112.95L110.28 194.29L141.6 157.02H158.42V193.6H166.1V206.11H158.42V217.84H142.29V206.11H142.28ZM142.28 193.69V176.26L127.79 193.69H142.28Z" fill="#1A3D69"/>
<path d="M264.71 206.11H235.38L232.71 194.29L264.03 157.02H280.85V193.6H288.53V206.11H280.85V217.84H264.72V206.11H264.71ZM264.71 193.69V176.26L250.22 193.69H264.71Z" fill="#1A3D69"/>
<path d="M199.42 167.25C210.67 167.25 219.82 176.4 219.82 187.65C219.82 198.9 210.67 208.05 199.42 208.05C188.17 208.05 179.02 198.9 179.02 187.65C179.02 176.4 188.17 167.25 199.42 167.25ZM199.42 156.25C182.08 156.25 168.02 170.31 168.02 187.65C168.02 204.99 182.08 219.05 199.42 219.05C216.76 219.05 230.82 204.99 230.82 187.65C230.82 170.31 216.76 156.25 199.42 156.25Z" fill="#1A3D69"/>
<path d="M189.78 184.97C192.094 184.97 193.97 183.094 193.97 180.78C193.97 178.466 192.094 176.59 189.78 176.59C187.466 176.59 185.59 178.466 185.59 180.78C185.59 183.094 187.466 184.97 189.78 184.97Z" fill="#1A3D69"/>
<path d="M209.05 184.97C211.364 184.97 213.24 183.094 213.24 180.78C213.24 178.466 211.364 176.59 209.05 176.59C206.736 176.59 204.86 178.466 204.86 180.78C204.86 183.094 206.736 184.97 209.05 184.97Z" fill="#1A3D69"/>
<path d="M188.87 198.55C195.66 193.81 203.2 193.84 209.96 198.55C210.77 199.12 211.51 198.13 210.96 197.23C208.9 193.84 204.74 190.82 199.42 190.82C194.1 190.82 189.94 193.84 187.88 197.23C187.33 198.13 188.06 199.11 188.87 198.55Z" fill="#1A3D69"/>
</g>
<defs>
<radialGradient id="paint0_radial_65_843" cx="0" cy="0" r="1" gradientUnits="userSpaceOnUse" gradientTransform="translate(200 232.419) scale(167.581 167.581)">
<stop stop-color="#7FCDBF" stop-opacity="0.5"/>
<stop offset="1" stop-color="#7FCDBF"/>
</radialGradient>
<clipPath id="clip0_65_843">
<rect width="400" height="400" fill="white"/>
</clipPath>
</defs>
</svg>
